<?xml version="1.0" standalone="no"?>
<!DOCTYPE svg PUBLIC "-//W3C//DTD SVG 20010904//EN"
 "http://www.w3.org/TR/2001/REC-SVG-20010904/DTD/svg10.dtd">
<svg version="1.0" xmlns="http://www.w3.org/2000/svg"
 width="400.000000pt" height="400.000000pt" viewBox="0 0 400.000000 400.000000"
 preserveAspectRatio="xMidYMid meet">

<g transform="translate(0.000000,400.000000) scale(0.100000,-0.100000)"
fill="#4051b5" stroke="none">
<path d="M0 2000 l0 -2000 2000 0 2000 0 0 2000 0 2000 -2000 0 -2000 0 0
-2000z m2235 1530 c300 -96 523 -339 602 -656 27 -111 23 -323 -9 -444 -59
-221 -134 -357 -496 -900 -156 -233 -293 -441 -304 -462 -12 -21 -25 -38 -28
-38 -3 0 -16 17 -28 39 -12 21 -149 229 -304 462 -362 542 -437 678 -496 899
-32 121 -36 333 -9 444 86 345 348 607 678 676 24 5 107 8 184 6 111 -3 155
-8 210 -26z m-418 -2389 c87 -132 164 -247 170 -258 13 -17 13 -17 25 1 7 10
84 126 171 257 l159 239 191 0 192 -1 223 -291 c122 -160 221 -292 220 -293
-7 -6 -1156 -355 -1167 -355 -10 0 -904 271 -1149 348 -22 7 -10 25 200 299
l223 292 192 1 192 0 158 -239z"/>
<path d="M1903 3076 c-105 -34 -175 -97 -223 -198 -89 -188 -7 -420 178 -506
48 -22 71 -27 142 -27 71 0 94 5 142 27 143 66 231 229 213 390 -9 77 -63 185
-116 233 -88 80 -234 115 -336 81z"/>
</g>
</svg>
