<?xml version="1.0" encoding="UTF-8"?>
<svg version="1.1" xmlns="http://www.w3.org/2000/svg" width="1024" height="1024">
<path d="M0 0 C337.92 0 675.84 0 1024 0 C1024 337.92 1024 675.84 1024 1024 C686.08 1024 348.16 1024 0 1024 C0 686.08 0 348.16 0 0 Z " fill="#0B172F" transform="translate(0,0)"/>
<path d="M0 0 C0.98777042 0.25456593 0.98777042 0.25456593 1.9954958 0.5142746 C4.17467102 1.07816671 6.35043627 1.6541956 8.52636719 2.23046875 C10.08119789 2.63573104 11.63621033 3.04029662 13.19139099 3.44421387 C17.37003799 4.53204499 21.54571459 5.63088492 25.72079086 6.73233032 C29.20599972 7.6505389 32.69275363 8.56280352 36.17948055 9.47522736 C67.196619 17.59393788 98.17278368 25.86515263 129.07324219 34.41796875 C130.09099731 34.69942749 131.10875244 34.98088623 132.15734863 35.27087402 C215.48085093 58.3425278 215.48085093 58.3425278 237.07324219 75.41796875 C237.95882812 76.11277344 238.84441406 76.80757813 239.75683594 77.5234375 C251.03199577 86.98921061 256.95679128 98.93727977 259.07324219 113.41796875 C259.18224573 115.41405074 259.24815685 117.41279633 259.27856445 119.41162109 C259.2984845 120.60462326 259.31840454 121.79762543 259.33892822 123.02677917 C259.35566589 124.33923111 259.37240356 125.65168304 259.38964844 127.00390625 C259.41066739 128.43740632 259.4318943 129.87090336 259.45330811 131.30439758 C259.52280577 136.13382465 259.58004323 140.96336557 259.63574219 145.79296875 C259.64564053 146.63068943 259.65553886 147.46841011 259.66573715 148.33151627 C259.84220848 163.36002013 259.96723762 178.38881629 260.07324219 193.41796875 C260.08207428 194.66262154 260.09090637 195.90727432 260.1000061 197.18964386 C260.21649639 213.8925666 260.30457518 230.59537737 260.34805965 247.29865646 C260.351806 248.72793329 260.35556759 250.15721007 260.35934448 251.58648682 C260.36120453 252.29234161 260.36306458 252.99819641 260.364981 253.72544074 C260.37895263 258.64236168 260.40341531 263.55916006 260.43240356 268.47601318 C260.69604229 314.48253722 259.66251831 359.31188993 245.07324219 403.41796875 C244.67516357 404.64459229 244.67516357 404.64459229 244.26904297 405.89599609 C231.19265474 445.95367074 209.82852182 481.84620818 182.07324219 513.41796875 C181.27273438 514.330625 180.47222656 515.24328125 179.64746094 516.18359375 C173.60664974 522.91022022 167.26526174 529.3264999 160.88574219 535.73046875 C160.04213135 536.57875244 159.19852051 537.42703613 158.3293457 538.30102539 C153.94473512 542.67444305 149.49289904 546.90008912 144.7956543 550.9362793 C142.63285064 552.7968116 140.54386918 554.73237145 138.44824219 556.66796875 C132.88293645 561.67674392 127.05253439 566.29929963 121.11474609 570.85205078 C119.71588535 571.92503485 118.31986077 573.0017237 116.92626953 574.08154297 C22.77749404 646.91747378 22.77749404 646.91747378 -14.92041016 642.94213867 C-20.14604931 642.03102553 -24.86632011 640.09005113 -29.73925781 638.04296875 C-30.82674316 637.59453613 -31.91422852 637.14610352 -33.03466797 636.68408203 C-80.02496522 616.99258438 -125.28420021 586.76666371 -162.79785156 552.36328125 C-164.85084774 550.48733245 -166.94268513 548.6678896 -169.05175781 546.85546875 C-173.20897326 543.23575186 -177.06579445 539.34829074 -180.92675781 535.41796875 C-183.65335895 532.67757368 -186.39652112 529.95584209 -189.16113281 527.25390625 C-196.24032403 520.30595959 -202.80043342 513.23431367 -208.92675781 505.41796875 C-209.86713967 504.26502561 -210.8099964 503.11409811 -211.75488281 501.96484375 C-222.70299246 488.59209205 -232.43637243 474.47486181 -240.92675781 459.41796875 C-241.34924805 458.67015137 -241.77173828 457.92233398 -242.20703125 457.15185547 C-262.76726572 420.33416752 -274.26222913 380.16826226 -278.92675781 338.41796875 C-279.01720808 337.62556416 -279.10765835 336.83315956 -279.20084953 336.01674271 C-280.02017589 328.0660491 -280.06834509 320.15667917 -280.05615234 312.17089844 C-280.05751082 310.66247516 -280.05929324 309.15405221 -280.0614624 307.64562988 C-280.06600088 303.56419778 -280.06425737 299.48279113 -280.06108332 295.4013586 C-280.05852074 291.06292091 -280.06090983 286.72448516 -280.06246948 282.38604736 C-280.06428845 275.05586365 -280.06190091 267.72569 -280.05712891 260.39550781 C-280.05236109 252.98925105 -280.05225343 245.5830145 -280.05712891 238.17675781 C-280.07197011 214.69638013 -280.04902803 191.21652074 -279.93766975 167.73637009 C-279.92699567 165.46850522 -279.91703003 163.20063796 -279.90708923 160.93276978 C-279.87035882 152.95928575 -279.8093977 144.98665209 -279.70968246 137.01364899 C-279.68301827 134.7112597 -279.66252513 132.40878864 -279.6489296 130.1062851 C-279.54459915 114.10491062 -278.49068844 100.89124328 -268.92675781 87.41796875 C-268.44851563 86.74378906 -267.97027344 86.06960938 -267.47753906 85.375 C-230.68822508 38.94818311 -128.40049772 28.8801642 -73.52929688 14.49121094 C-60.69476408 11.11865752 -47.90475892 7.58576055 -35.11572266 4.04516602 C-34.296604 3.81869385 -33.47748535 3.59222168 -32.63354492 3.35888672 C-31.11017599 2.93753269 -29.58704333 2.51532301 -28.06420898 2.09204102 C-26.68846497 1.71146496 -25.31167778 1.33463582 -23.93377686 0.96194458 C-22.57898471 0.59474618 -21.22681147 0.21776521 -19.8772583 -0.16824341 C-18.87042999 -0.44376541 -18.87042999 -0.44376541 -17.84326172 -0.72485352 C-17.25719147 -0.88985855 -16.67112122 -1.05486359 -16.06729126 -1.22486877 C-10.44890754 -2.16233408 -5.45739218 -1.42680101 0 0 Z " fill="#000308" transform="translate(521.9267578125,188.58203125)"/>
<path d="M0 0 C18.89376455 16.32819021 30.80510635 40.32324444 34.3125 64.875 C18.1425 64.875 1.9725 64.875 -14.6875 64.875 C-16.9975 59.265 -19.3075 53.655 -21.6875 47.875 C-24.00468829 44.48197429 -25.94906053 41.79230151 -28.6875 38.875 C-29.48414063 37.94494141 -29.48414063 37.94494141 -30.296875 36.99609375 C-34.96575759 31.84920651 -40.42770155 28.78283141 -46.6875 25.875 C-47.55761719 25.45863281 -48.42773438 25.04226563 -49.32421875 24.61328125 C-61.59057385 19.62624672 -77.57925926 20.06201341 -89.90625 24.62109375 C-106.60582247 32.14997403 -117.79726268 44.65758828 -124.5625 61.5 C-130.1492295 77.39626127 -132.07296811 93.34762234 -132 110.125 C-131.99726578 111.1318132 -131.99726578 111.1318132 -131.99447632 112.15896606 C-131.88202127 136.88552396 -127.83119505 163.1032296 -109.99609375 181.66015625 C-98.8519835 192.3517138 -85.48973628 198.30363683 -69.9375 198.1875 C-69.15181641 198.18258545 -68.36613281 198.1776709 -67.55664062 198.17260742 C-53.24873555 197.88697664 -41.37928583 193.19686631 -31.00390625 183.30859375 C-23.10615082 175.01128914 -20.10905504 166.9288876 -15.6875 155.875 C0.4825 155.875 16.6525 155.875 33.3125 155.875 C28.67025921 181.40732433 15.3455154 206.00989045 -5.6875 221.875 C-19.80531566 231.59764663 -33.99971755 236.85315831 -50.6875 239.875 C-51.74324219 240.06964844 -52.79898438 240.26429688 -53.88671875 240.46484375 C-84.20566741 243.73667274 -115.31453078 238.83007248 -139.625 219.375 C-141.33102749 217.89610634 -143.02003176 216.39723714 -144.6875 214.875 C-145.40421875 214.22789062 -146.1209375 213.58078125 -146.859375 212.9140625 C-165.07008143 195.6209498 -174.27342461 171.84387109 -179.6875 147.875 C-179.85411133 147.16520996 -180.02072266 146.45541992 -180.19238281 145.72412109 C-188.94592887 106.98560207 -182.43979362 60.13918483 -161.80859375 26.1484375 C-158.4828232 21.01584869 -154.79209873 16.40308908 -150.6875 11.875 C-150.03056152 11.14434326 -150.03056152 11.14434326 -149.36035156 10.39892578 C-112.77782177 -29.78505984 -42.07552466 -34.51537049 0 0 Z " fill="#F7F8F7" transform="translate(493.6875,361.125)"/>
<path d="M0 0 C16.5 0 33 0 50 0 C50 70.62 50 141.24 50 214 C83.33 214 116.66 214 151 214 C151 228.52 151 243.04 151 258 C101.17 258 51.34 258 0 258 C0 172.86 0 87.72 0 0 Z " fill="#F8F8F8" transform="translate(555,342)"/>
<path d="M0 0 C16.5 0 33 0 50 0 C49.67 34.98 49.34 69.96 49 106 C48.67 106 48.34 106 48 106 C48 72.01 48 38.02 48 3 C33.15 3 18.3 3 3 3 C3 86.49 3 169.98 3 256 C2.67 256 2.34 256 2 256 C2.00184359 254.69279558 2.00368717 253.38559116 2.00558662 252.03877449 C2.04886642 221.0351326 2.08186302 190.03149884 2.10213066 159.02783401 C2.10463219 155.21500777 2.10722082 151.40218161 2.10986328 147.58935547 C2.11065021 146.45071817 2.11065021 146.45071817 2.11145304 145.2890781 C2.12016477 132.9846195 2.13593895 120.68017951 2.15430559 108.37573196 C2.17298332 95.758005 2.18411221 83.14028782 2.18817699 70.5225476 C2.19092648 62.73153912 2.1996224 54.94058325 2.21583293 47.14959095 C2.22761644 41.1837771 2.22891675 35.21800886 2.22621536 29.25218201 C2.22676803 26.79870656 2.23077839 24.34522923 2.23841095 21.89176559 C2.24828528 18.55554589 2.24599651 15.21955574 2.24050903 11.8833313 C2.24633472 10.90085611 2.2521604 9.91838093 2.25816262 8.90613377 C2.25418052 8.0173692 2.25019842 7.12860462 2.24609566 6.21290779 C2.2468551 5.44207552 2.24761454 4.67124325 2.24839699 3.87705243 C2.16129783 1.755811 2.16129783 1.755811 0 0 Z " fill="#F1F1F0" transform="translate(555,342)"/>
<path d="M0 0 C16.5 0 33 0 50 0 C49.67 34.98 49.34 69.96 49 106 C48.67 106 48.34 106 48 106 C48 71.68 48 37.36 48 2 C34.8 2 21.6 2 8 2 C5.36 1.67 2.72 1.34 0 1 C0 0.67 0 0.34 0 0 Z " fill="#E6E7E7" transform="translate(555,342)"/>
<path d="M0 0 C2.64 0.33 5.28 0.66 8 1 C8 1.66 8 2.32 8 3 C9.65 3.33 11.3 3.66 13 4 C9.57056481 5.18771723 7.62215325 4.80226223 4.25 3.5625 C3.45078125 3.27503906 2.6515625 2.98757813 1.828125 2.69140625 C1.22484375 2.46324219 0.6215625 2.23507812 0 2 C0 1.34 0 0.68 0 0 Z " fill="#EDEEEE" transform="translate(382,594)"/>
<path d="M0 0 C0.66 0.33 1.32 0.66 2 1 C2 1.66 2 2.32 2 3 C1.34 3 0.68 3 0 3 C0.33 4.65 0.66 6.3 1 8 C0.34 8 -0.32 8 -1 8 C-1.33 9.32 -1.66 10.64 -2 12 C-3.15957207 8.52128379 -2.77456651 7.65780355 -1.5625 4.3125 C-1.13130859 3.10013672 -1.13130859 3.10013672 -0.69140625 1.86328125 C-0.46324219 1.24839844 -0.23507812 0.63351562 0 0 Z " fill="#EEEEEF" transform="translate(318,421)"/>
<path d="M0 0 C2.97 0.495 2.97 0.495 6 1 C6 1.66 6 2.32 6 3 C7.32 3.33 8.64 3.66 10 4 C9.67 4.66 9.34 5.32 9 6 C7.68277821 5.57692877 6.37127336 5.13602514 5.0625 4.6875 C4.33160156 4.44386719 3.60070312 4.20023437 2.84765625 3.94921875 C1 3 1 3 0 0 Z " fill="#ECEDED" transform="translate(438,381)"/>
</svg>
